<svg width="152" height="153" viewBox="0 0 152 153" fill="none" xmlns="http://www.w3.org/2000/svg">
<g filter="url(#filter0_d_2179_5694)">
<path d="M134.293 109.498L132.986 108.963C128.099 106.96 126.275 102.172 128.268 97.3089C130.439 92.0107 135.93 89.8526 140.768 91.8355C145.679 93.8482 148.032 99.2768 145.96 104.333C144.641 107.551 141.9 109.62 138.993 110.096L138.517 106.567C140.189 106.348 141.885 105.037 142.728 102.98C144.047 99.7627 142.627 96.4686 139.41 95.15C136.265 93.8611 132.972 95.1394 131.524 98.6716C130.434 101.333 131.022 103.552 132.719 104.926L134.821 99.7967L137.773 101.006L134.293 109.498Z" fill="white"/>
</g>
<g filter="url(#filter1_d_2179_5694)">
<path d="M124.5 111.757L119.672 117.772L116.981 115.612L124.067 106.783L138.34 118.238L131.336 126.965L128.644 124.805L133.39 118.892L130.352 116.453L126.015 121.857L123.364 119.729L127.701 114.326L124.5 111.757Z" fill="white"/>
</g>
<g filter="url(#filter2_d_2179_5694)">
<path d="M116.173 139.728L114.072 136.99L117.993 133.982L108.953 122.2L111.815 120.004L120.855 131.786L124.755 128.794L126.856 131.532L116.173 139.728Z" fill="white"/>
</g>
<g filter="url(#filter3_d_2179_5694)">
<path d="M102.695 146.083L99.289 147.274L93.2474 129.998L96.6532 128.807L102.695 146.083Z" fill="white"/>
</g>
<g filter="url(#filter4_d_2179_5694)">
<path d="M81.4629 150.793L77.8805 151.223L75.6991 133.051L78.4248 132.724L87.5464 142.9L86.2126 131.789L89.795 131.359L91.9764 149.531L89.2507 149.858L80.1322 139.708L81.4629 150.793Z" fill="white"/>
</g>
<g filter="url(#filter5_d_2179_5694)">
<path d="M48.5845 145.995L49.5376 142.678L54.287 144.043L58.3882 129.77L61.856 130.766L57.7548 145.04L62.479 146.397L61.5259 149.714L48.5845 145.995Z" fill="white"/>
</g>
<g filter="url(#filter6_d_2179_5694)">
<path d="M45.3151 122.99C49.729 125.89 50.9497 131.698 48.0208 136.155C45.0775 140.635 39.2767 141.797 34.8628 138.897C30.449 135.997 29.192 130.197 32.1353 125.717C35.0642 121.26 40.9013 120.09 45.3151 122.99ZM43.3769 125.94C40.6018 124.116 37.0746 124.771 35.1507 127.699C33.2124 130.648 34.0117 134.146 36.7867 135.969C39.5618 137.793 43.089 137.138 45.0273 134.188C46.9512 131.26 46.1519 127.763 43.3769 125.94Z" fill="white"/>
</g>
<g filter="url(#filter7_d_2179_5694)">
<path d="M32.4121 111.291C34.916 114.41 34.9057 118.241 31.8267 120.712L22.2226 128.42L19.9806 125.626L29.3604 118.098C30.7469 116.985 31.1977 115.417 29.6594 113.5C28.1211 111.583 26.492 111.684 25.1055 112.797L15.7257 120.324L13.4674 117.511L23.0714 109.803C26.1504 107.332 29.8919 108.15 32.4121 111.291Z" fill="white"/>
</g>
<g filter="url(#filter8_d_2179_5694)">
<path d="M23.4586 95.6271C25.4641 100.794 23.0022 106.013 18.0298 107.943C13.0331 109.882 7.7197 107.681 5.71419 102.514C4.50332 99.3941 5.01867 96.0249 6.8885 93.6164L9.69605 95.8642C8.50649 97.2795 8.22354 99.2964 8.98034 101.246C10.2764 104.586 13.4433 105.881 16.7338 104.603C20 103.336 21.4641 100.243 20.1681 96.9042C19.4113 94.9543 17.8324 93.6319 16.0334 93.4046L16.5894 89.8514C19.585 90.3434 22.2383 92.4828 23.4586 95.6271Z" fill="white"/>
</g>
<g filter="url(#filter9_d_2179_5694)">
<path d="M1.18487 76.8315L0.977671 73.2556L19.249 72.1969L19.4562 75.7729L11.8866 76.2115L12.2798 82.9979L19.8494 82.5594L20.0581 86.1614L1.78679 87.2201L1.57808 83.618L8.8344 83.1976L8.44118 76.4111L1.18487 76.8315Z" fill="white"/>
</g>
<g filter="url(#filter10_d_2179_5694)">
<path d="M17.9307 42.708L19.2391 43.2385C24.1336 45.2229 25.9755 50.0042 24.0009 54.8744C21.8495 60.1807 16.3675 62.3593 11.5215 60.3945C6.60287 58.4002 4.22982 52.9805 6.28302 47.9164C7.5896 44.6939 10.3231 42.6141 13.2288 42.1276L13.7172 45.6548C12.0459 45.88 10.355 47.1975 9.51999 49.2571C8.21341 52.4796 9.64483 55.7684 12.8674 57.075C16.0173 58.3521 19.3054 57.0615 20.7397 53.524C21.8204 50.8587 21.2239 48.6419 19.5212 47.2745L17.4386 52.4112L14.4825 51.2127L17.9307 42.708Z" fill="white"/>
</g>
<g filter="url(#filter11_d_2179_5694)">
<path d="M27.7261 40.3526L32.5318 34.3198L35.2312 36.4702L28.1774 45.3251L13.8622 33.9217L20.8346 25.169L23.534 27.3193L18.8098 33.2499L21.8568 35.6772L26.1739 30.2579L28.8324 32.3757L24.5154 37.795L27.7261 40.3526Z" fill="white"/>
</g>
<g filter="url(#filter12_d_2179_5694)">
<path d="M35.8718 12.396L37.9826 15.1265L34.073 18.1487L43.1558 29.8981L40.3012 32.1048L31.2184 20.3555L27.3295 23.3617L25.2188 20.6312L35.8718 12.396Z" fill="white"/>
</g>
<g filter="url(#filter13_d_2179_5694)">
<path d="M49.3382 5.93871L52.7395 4.73483L58.8461 21.988L55.4448 23.1918L49.3382 5.93871Z" fill="white"/>
</g>
<g filter="url(#filter14_d_2179_5694)">
<path d="M70.3312 1.15721L73.9119 0.713403L76.1631 18.8764L73.4387 19.2141L64.2781 9.0735L65.6546 20.1789L62.0739 20.6227L59.8226 2.4597L62.5471 2.12202L71.7045 12.2366L70.3312 1.15721Z" fill="white"/>
</g>
<g filter="url(#filter15_d_2179_5694)">
<path d="M103.223 5.69728L102.282 9.01787L97.5279 7.67121L93.4808 21.9598L90.0093 20.9766L94.0564 6.68794L89.327 5.3484L90.2676 2.0278L103.223 5.69728Z" fill="white"/>
</g>
<g filter="url(#filter16_d_2179_5694)">
<path d="M106.521 28.5366C102.086 25.6688 100.822 19.8702 103.718 15.3913C106.629 10.8904 112.421 9.68521 116.856 12.553C121.291 15.4208 122.59 21.2116 119.68 25.7125C116.784 30.1914 110.956 31.4043 106.521 28.5366ZM108.437 25.5726C111.225 27.3756 114.748 26.6953 116.65 23.7533C118.567 20.7893 117.742 17.298 114.954 15.495C112.165 13.692 108.643 14.3723 106.726 17.3363C104.824 20.2783 105.649 23.7696 108.437 25.5726Z" fill="white"/>
</g>
<g filter="url(#filter17_d_2179_5694)">
<path d="M119.727 40.2832C117.211 37.1726 117.208 33.3424 120.278 30.8601L129.854 23.1173L132.106 25.9026L122.754 33.4646C121.371 34.5825 120.926 36.1528 122.471 38.0639C124.017 39.975 125.645 39.8685 127.028 38.7507L136.38 31.1887L138.649 33.9943L129.073 41.7372C126.003 44.2195 122.258 43.4142 119.727 40.2832Z" fill="white"/>
</g>
<g filter="url(#filter18_d_2179_5694)">
<path d="M128.845 56.0256C126.82 50.8659 129.262 45.6382 134.227 43.6897C139.217 41.7317 144.538 43.9126 146.563 49.0724C147.786 52.1877 147.283 55.5588 145.422 57.9742L142.606 55.737C143.791 54.3173 144.066 52.2993 143.302 50.3522C141.993 47.0178 138.822 45.7347 135.536 47.0241C132.274 48.304 130.822 51.4018 132.13 54.7362C132.894 56.6833 134.478 57.9997 136.278 58.2203L135.735 61.7756C132.738 61.2948 130.077 59.1653 128.845 56.0256Z" fill="white"/>
</g>
<g filter="url(#filter19_d_2179_5694)">
<path d="M151.198 74.4536L151.433 78.0278L133.17 79.2273L132.936 75.6531L140.501 75.1561L140.056 68.3729L132.49 68.8698L132.254 65.2695L150.516 64.07L150.753 67.6703L143.5 68.1467L143.945 74.9299L151.198 74.4536Z" fill="white"/>
</g>
<defs>
<filter id="filter0_d_2179_5694" x="124.392" y="88.2363" width="25.6737" height="25.5487" filterUnits="userSpaceOnUse" color-interpolation-filters="sRGB">
<feFlood flood-opacity="0" result="BackgroundImageFix"/>
<feColorMatrix in="SourceAlpha" type="matrix" values="0 0 0 0 0 0 0 0 0 0 0 0 0 0 0 0 0 0 127 0" result="hardAlpha"/>
<feOffset dy="0.467725"/>
<feGaussianBlur stdDeviation="0.233863"/>
<feComposite in2="hardAlpha" operator="out"/>
<feColorMatrix type="matrix" values="0 0 0 0 0 0 0 0 0 0 0 0 0 0 0 0 0 0 0.29 0"/>
<feBlend mode="normal" in2="BackgroundImageFix" result="effect1_dropShadow_2179_5694"/>
<feBlend mode="normal" in="SourceGraphic" in2="effect1_dropShadow_2179_5694" result="shape"/>
</filter>
<filter id="filter1_d_2179_5694" x="116.513" y="106.783" width="22.2948" height="21.2187" filterUnits="userSpaceOnUse" color-interpolation-filters="sRGB">
<feFlood flood-opacity="0" result="BackgroundImageFix"/>
<feColorMatrix in="SourceAlpha" type="matrix" values="0 0 0 0 0 0 0 0 0 0 0 0 0 0 0 0 0 0 127 0" result="hardAlpha"/>
<feOffset dy="0.467725"/>
<feGaussianBlur stdDeviation="0.233863"/>
<feComposite in2="hardAlpha" operator="out"/>
<feColorMatrix type="matrix" values="0 0 0 0 0 0 0 0 0 0 0 0 0 0 0 0 0 0 0.29 0"/>
<feBlend mode="normal" in2="BackgroundImageFix" result="effect1_dropShadow_2179_5694"/>
<feBlend mode="normal" in="SourceGraphic" in2="effect1_dropShadow_2179_5694" result="shape"/>
</filter>
<filter id="filter2_d_2179_5694" x="104.564" y="117.012" width="22.7597" height="23.6522" filterUnits="userSpaceOnUse" color-interpolation-filters="sRGB">
<feFlood flood-opacity="0" result="BackgroundImageFix"/>
<feColorMatrix in="SourceAlpha" type="matrix" values="0 0 0 0 0 0 0 0 0 0 0 0 0 0 0 0 0 0 127 0" result="hardAlpha"/>
<feOffset dy="0.467725"/>
<feGaussianBlur stdDeviation="0.233863"/>
<feComposite in2="hardAlpha" operator="out"/>
<feColorMatrix type="matrix" values="0 0 0 0 0 0 0 0 0 0 0 0 0 0 0 0 0 0 0.29 0"/>
<feBlend mode="normal" in2="BackgroundImageFix" result="effect1_dropShadow_2179_5694"/>
<feBlend mode="normal" in="SourceGraphic" in2="effect1_dropShadow_2179_5694" result="shape"/>
</filter>
<filter id="filter3_d_2179_5694" x="92.7784" y="128.807" width="10.3847" height="19.4022" filterUnits="userSpaceOnUse" color-interpolation-filters="sRGB">
<feFlood flood-opacity="0" result="BackgroundImageFix"/>
<feColorMatrix in="SourceAlpha" type="matrix" values="0 0 0 0 0 0 0 0 0 0 0 0 0 0 0 0 0 0 127 0" result="hardAlpha"/>
<feOffset dy="0.467725"/>
<feGaussianBlur stdDeviation="0.233863"/>
<feComposite in2="hardAlpha" operator="out"/>
<feColorMatrix type="matrix" values="0 0 0 0 0 0 0 0 0 0 0 0 0 0 0 0 0 0 0.29 0"/>
<feBlend mode="normal" in2="BackgroundImageFix" result="effect1_dropShadow_2179_5694"/>
<feBlend mode="normal" in="SourceGraphic" in2="effect1_dropShadow_2179_5694" result="shape"/>
</filter>
<filter id="filter4_d_2179_5694" x="75.2315" y="131.359" width="17.2128" height="20.7987" filterUnits="userSpaceOnUse" color-interpolation-filters="sRGB">
<feFlood flood-opacity="0" result="BackgroundImageFix"/>
<feColorMatrix in="SourceAlpha" type="matrix" values="0 0 0 0 0 0 0 0 0 0 0 0 0 0 0 0 0 0 127 0" result="hardAlpha"/>
<feOffset dy="0.467725"/>
<feGaussianBlur stdDeviation="0.233863"/>
<feComposite in2="hardAlpha" operator="out"/>
<feColorMatrix type="matrix" values="0 0 0 0 0 0 0 0 0 0 0 0 0 0 0 0 0 0 0.29 0"/>
<feBlend mode="normal" in2="BackgroundImageFix" result="effect1_dropShadow_2179_5694"/>
<feBlend mode="normal" in="SourceGraphic" in2="effect1_dropShadow_2179_5694" result="shape"/>
</filter>
<filter id="filter5_d_2179_5694" x="48.1182" y="128.404" width="18.9315" height="22.246" filterUnits="userSpaceOnUse" color-interpolation-filters="sRGB">
<feFlood flood-opacity="0" result="BackgroundImageFix"/>
<feColorMatrix in="SourceAlpha" type="matrix" values="0 0 0 0 0 0 0 0 0 0 0 0 0 0 0 0 0 0 127 0" result="hardAlpha"/>
<feOffset dy="0.467725"/>
<feGaussianBlur stdDeviation="0.233863"/>
<feComposite in2="hardAlpha" operator="out"/>
<feColorMatrix type="matrix" values="0 0 0 0 0 0 0 0 0 0 0 0 0 0 0 0 0 0 0.29 0"/>
<feBlend mode="normal" in2="BackgroundImageFix" result="effect1_dropShadow_2179_5694"/>
<feBlend mode="normal" in="SourceGraphic" in2="effect1_dropShadow_2179_5694" result="shape"/>
</filter>
<filter id="filter6_d_2179_5694" x="26.4424" y="117.764" width="27.2714" height="27.2812" filterUnits="userSpaceOnUse" color-interpolation-filters="sRGB">
<feFlood flood-opacity="0" result="BackgroundImageFix"/>
<feColorMatrix in="SourceAlpha" type="matrix" values="0 0 0 0 0 0 0 0 0 0 0 0 0 0 0 0 0 0 127 0" result="hardAlpha"/>
<feOffset dy="0.467725"/>
<feGaussianBlur stdDeviation="0.233863"/>
<feComposite in2="hardAlpha" operator="out"/>
<feColorMatrix type="matrix" values="0 0 0 0 0 0 0 0 0 0 0 0 0 0 0 0 0 0 0.29 0"/>
<feBlend mode="normal" in2="BackgroundImageFix" result="effect1_dropShadow_2179_5694"/>
<feBlend mode="normal" in="SourceGraphic" in2="effect1_dropShadow_2179_5694" result="shape"/>
</filter>
<filter id="filter7_d_2179_5694" x="13.001" y="105.826" width="24.248" height="23.5292" filterUnits="userSpaceOnUse" color-interpolation-filters="sRGB">
<feFlood flood-opacity="0" result="BackgroundImageFix"/>
<feColorMatrix in="SourceAlpha" type="matrix" values="0 0 0 0 0 0 0 0 0 0 0 0 0 0 0 0 0 0 127 0" result="hardAlpha"/>
<feOffset dy="0.467725"/>
<feGaussianBlur stdDeviation="0.233863"/>
<feComposite in2="hardAlpha" operator="out"/>
<feColorMatrix type="matrix" values="0 0 0 0 0 0 0 0 0 0 0 0 0 0 0 0 0 0 0.29 0"/>
<feBlend mode="normal" in2="BackgroundImageFix" result="effect1_dropShadow_2179_5694"/>
<feBlend mode="normal" in="SourceGraphic" in2="effect1_dropShadow_2179_5694" result="shape"/>
</filter>
<filter id="filter8_d_2179_5694" x="2.39946" y="88.291" width="24.9706" height="24.0312" filterUnits="userSpaceOnUse" color-interpolation-filters="sRGB">
<feFlood flood-opacity="0" result="BackgroundImageFix"/>
<feColorMatrix in="SourceAlpha" type="matrix" values="0 0 0 0 0 0 0 0 0 0 0 0 0 0 0 0 0 0 127 0" result="hardAlpha"/>
<feOffset dy="0.467725"/>
<feGaussianBlur stdDeviation="0.233863"/>
<feComposite in2="hardAlpha" operator="out"/>
<feColorMatrix type="matrix" values="0 0 0 0 0 0 0 0 0 0 0 0 0 0 0 0 0 0 0.29 0"/>
<feBlend mode="normal" in2="BackgroundImageFix" result="effect1_dropShadow_2179_5694"/>
<feBlend mode="normal" in="SourceGraphic" in2="effect1_dropShadow_2179_5694" result="shape"/>
</filter>
<filter id="filter9_d_2179_5694" x="0.508837" y="72.1973" width="20.0175" height="15.9589" filterUnits="userSpaceOnUse" color-interpolation-filters="sRGB">
<feFlood flood-opacity="0" result="BackgroundImageFix"/>
<feColorMatrix in="SourceAlpha" type="matrix" values="0 0 0 0 0 0 0 0 0 0 0 0 0 0 0 0 0 0 127 0" result="hardAlpha"/>
<feOffset dy="0.467725"/>
<feGaussianBlur stdDeviation="0.233863"/>
<feComposite in2="hardAlpha" operator="out"/>
<feColorMatrix type="matrix" values="0 0 0 0 0 0 0 0 0 0 0 0 0 0 0 0 0 0 0.29 0"/>
<feBlend mode="normal" in2="BackgroundImageFix" result="effect1_dropShadow_2179_5694"/>
<feBlend mode="normal" in="SourceGraphic" in2="effect1_dropShadow_2179_5694" result="shape"/>
</filter>
<filter id="filter10_d_2179_5694" x="2.20806" y="39.3867" width="25.6386" height="25.5097" filterUnits="userSpaceOnUse" color-interpolation-filters="sRGB">
<feFlood flood-opacity="0" result="BackgroundImageFix"/>
<feColorMatrix in="SourceAlpha" type="matrix" values="0 0 0 0 0 0 0 0 0 0 0 0 0 0 0 0 0 0 127 0" result="hardAlpha"/>
<feOffset dy="0.467725"/>
<feGaussianBlur stdDeviation="0.233863"/>
<feComposite in2="hardAlpha" operator="out"/>
<feColorMatrix type="matrix" values="0 0 0 0 0 0 0 0 0 0 0 0 0 0 0 0 0 0 0.29 0"/>
<feBlend mode="normal" in2="BackgroundImageFix" result="effect1_dropShadow_2179_5694"/>
<feBlend mode="normal" in="SourceGraphic" in2="effect1_dropShadow_2179_5694" result="shape"/>
</filter>
<filter id="filter11_d_2179_5694" x="13.3956" y="25.0664" width="22.3026" height="21.1933" filterUnits="userSpaceOnUse" color-interpolation-filters="sRGB">
<feFlood flood-opacity="0" result="BackgroundImageFix"/>
<feColorMatrix in="SourceAlpha" type="matrix" values="0 0 0 0 0 0 0 0 0 0 0 0 0 0 0 0 0 0 127 0" result="hardAlpha"/>
<feOffset dy="0.467725"/>
<feGaussianBlur stdDeviation="0.233863"/>
<feComposite in2="hardAlpha" operator="out"/>
<feColorMatrix type="matrix" values="0 0 0 0 0 0 0 0 0 0 0 0 0 0 0 0 0 0 0.29 0"/>
<feBlend mode="normal" in2="BackgroundImageFix" result="effect1_dropShadow_2179_5694"/>
<feBlend mode="normal" in="SourceGraphic" in2="effect1_dropShadow_2179_5694" result="shape"/>
</filter>
<filter id="filter12_d_2179_5694" x="24.751" y="12.3965" width="22.7831" height="23.6503" filterUnits="userSpaceOnUse" color-interpolation-filters="sRGB">
<feFlood flood-opacity="0" result="BackgroundImageFix"/>
<feColorMatrix in="SourceAlpha" type="matrix" values="0 0 0 0 0 0 0 0 0 0 0 0 0 0 0 0 0 0 127 0" result="hardAlpha"/>
<feOffset dy="0.467725"/>
<feGaussianBlur stdDeviation="0.233863"/>
<feComposite in2="hardAlpha" operator="out"/>
<feColorMatrix type="matrix" values="0 0 0 0 0 0 0 0 0 0 0 0 0 0 0 0 0 0 0.29 0"/>
<feBlend mode="normal" in2="BackgroundImageFix" result="effect1_dropShadow_2179_5694"/>
<feBlend mode="normal" in="SourceGraphic" in2="effect1_dropShadow_2179_5694" result="shape"/>
</filter>
<filter id="filter13_d_2179_5694" x="48.8721" y="4.73438" width="10.4433" height="19.3925" filterUnits="userSpaceOnUse" color-interpolation-filters="sRGB">
<feFlood flood-opacity="0" result="BackgroundImageFix"/>
<feColorMatrix in="SourceAlpha" type="matrix" values="0 0 0 0 0 0 0 0 0 0 0 0 0 0 0 0 0 0 127 0" result="hardAlpha"/>
<feOffset dy="0.467725"/>
<feGaussianBlur stdDeviation="0.233863"/>
<feComposite in2="hardAlpha" operator="out"/>
<feColorMatrix type="matrix" values="0 0 0 0 0 0 0 0 0 0 0 0 0 0 0 0 0 0 0.29 0"/>
<feBlend mode="normal" in2="BackgroundImageFix" result="effect1_dropShadow_2179_5694"/>
<feBlend mode="normal" in="SourceGraphic" in2="effect1_dropShadow_2179_5694" result="shape"/>
</filter>
<filter id="filter14_d_2179_5694" x="59.3565" y="0.712891" width="17.2753" height="20.8456" filterUnits="userSpaceOnUse" color-interpolation-filters="sRGB">
<feFlood flood-opacity="0" result="BackgroundImageFix"/>
<feColorMatrix in="SourceAlpha" type="matrix" values="0 0 0 0 0 0 0 0 0 0 0 0 0 0 0 0 0 0 127 0" result="hardAlpha"/>
<feOffset dy="0.467725"/>
<feGaussianBlur stdDeviation="0.233863"/>
<feComposite in2="hardAlpha" operator="out"/>
<feColorMatrix type="matrix" values="0 0 0 0 0 0 0 0 0 0 0 0 0 0 0 0 0 0 0.29 0"/>
<feBlend mode="normal" in2="BackgroundImageFix" result="effect1_dropShadow_2179_5694"/>
<feBlend mode="normal" in="SourceGraphic" in2="effect1_dropShadow_2179_5694" result="shape"/>
</filter>
<filter id="filter15_d_2179_5694" x="84.8135" y="2.02734" width="18.8769" height="22.2147" filterUnits="userSpaceOnUse" color-interpolation-filters="sRGB">
<feFlood flood-opacity="0" result="BackgroundImageFix"/>
<feColorMatrix in="SourceAlpha" type="matrix" values="0 0 0 0 0 0 0 0 0 0 0 0 0 0 0 0 0 0 127 0" result="hardAlpha"/>
<feOffset dy="0.467725"/>
<feGaussianBlur stdDeviation="0.233863"/>
<feComposite in2="hardAlpha" operator="out"/>
<feColorMatrix type="matrix" values="0 0 0 0 0 0 0 0 0 0 0 0 0 0 0 0 0 0 0.29 0"/>
<feBlend mode="normal" in2="BackgroundImageFix" result="effect1_dropShadow_2179_5694"/>
<feBlend mode="normal" in="SourceGraphic" in2="effect1_dropShadow_2179_5694" result="shape"/>
</filter>
<filter id="filter16_d_2179_5694" x="98.0831" y="7.40039" width="27.2323" height="27.2401" filterUnits="userSpaceOnUse" color-interpolation-filters="sRGB">
<feFlood flood-opacity="0" result="BackgroundImageFix"/>
<feColorMatrix in="SourceAlpha" type="matrix" values="0 0 0 0 0 0 0 0 0 0 0 0 0 0 0 0 0 0 127 0" result="hardAlpha"/>
<feOffset dy="0.467725"/>
<feGaussianBlur stdDeviation="0.233863"/>
<feComposite in2="hardAlpha" operator="out"/>
<feColorMatrix type="matrix" values="0 0 0 0 0 0 0 0 0 0 0 0 0 0 0 0 0 0 0.29 0"/>
<feBlend mode="normal" in2="BackgroundImageFix" result="effect1_dropShadow_2179_5694"/>
<feBlend mode="normal" in="SourceGraphic" in2="effect1_dropShadow_2179_5694" result="shape"/>
</filter>
<filter id="filter17_d_2179_5694" x="114.868" y="23.1172" width="24.248" height="23.5507" filterUnits="userSpaceOnUse" color-interpolation-filters="sRGB">
<feFlood flood-opacity="0" result="BackgroundImageFix"/>
<feColorMatrix in="SourceAlpha" type="matrix" values="0 0 0 0 0 0 0 0 0 0 0 0 0 0 0 0 0 0 127 0" result="hardAlpha"/>
<feOffset dy="0.467725"/>
<feGaussianBlur stdDeviation="0.233863"/>
<feComposite in2="hardAlpha" operator="out"/>
<feColorMatrix type="matrix" values="0 0 0 0 0 0 0 0 0 0 0 0 0 0 0 0 0 0 0.29 0"/>
<feBlend mode="normal" in2="BackgroundImageFix" result="effect1_dropShadow_2179_5694"/>
<feBlend mode="normal" in="SourceGraphic" in2="effect1_dropShadow_2179_5694" result="shape"/>
</filter>
<filter id="filter18_d_2179_5694" x="124.899" y="40.2129" width="25.0058" height="24.0741" filterUnits="userSpaceOnUse" color-interpolation-filters="sRGB">
<feFlood flood-opacity="0" result="BackgroundImageFix"/>
<feColorMatrix in="SourceAlpha" type="matrix" values="0 0 0 0 0 0 0 0 0 0 0 0 0 0 0 0 0 0 127 0" result="hardAlpha"/>
<feOffset dy="0.467725"/>
<feGaussianBlur stdDeviation="0.233863"/>
<feComposite in2="hardAlpha" operator="out"/>
<feColorMatrix type="matrix" values="0 0 0 0 0 0 0 0 0 0 0 0 0 0 0 0 0 0 0.29 0"/>
<feBlend mode="normal" in2="BackgroundImageFix" result="effect1_dropShadow_2179_5694"/>
<feBlend mode="normal" in="SourceGraphic" in2="effect1_dropShadow_2179_5694" result="shape"/>
</filter>
<filter id="filter19_d_2179_5694" x="131.786" y="64.0703" width="20.1151" height="16.0917" filterUnits="userSpaceOnUse" color-interpolation-filters="sRGB">
<feFlood flood-opacity="0" result="BackgroundImageFix"/>
<feColorMatrix in="SourceAlpha" type="matrix" values="0 0 0 0 0 0 0 0 0 0 0 0 0 0 0 0 0 0 127 0" result="hardAlpha"/>
<feOffset dy="0.467725"/>
<feGaussianBlur stdDeviation="0.233863"/>
<feComposite in2="hardAlpha" operator="out"/>
<feColorMatrix type="matrix" values="0 0 0 0 0 0 0 0 0 0 0 0 0 0 0 0 0 0 0.29 0"/>
<feBlend mode="normal" in2="BackgroundImageFix" result="effect1_dropShadow_2179_5694"/>
<feBlend mode="normal" in="SourceGraphic" in2="effect1_dropShadow_2179_5694" result="shape"/>
</filter>
</defs>
</svg>
