<svg width="72" height="72" viewBox="0 0 72 72" fill="none" xmlns="http://www.w3.org/2000/svg">
<path d="M49.2959 43.2441C42.2339 43.2441 38.4239 48.9732 38.4239 54.3638C38.4239 60.3539 44.4059 65 49.5496 65H64.727L64.2245 63.0009C62.497 56.097 59.2861 43.2441 49.2959 43.2441ZM49.5496 62.5827C45.6284 62.5827 40.8399 58.7899 40.8399 54.3638C40.8399 50.0392 43.7439 45.6615 49.2959 45.6615C56.9861 45.6615 60.0037 56.1575 61.6297 62.5827H49.5496ZM65 14.8189C65 12.7207 64.1882 10.753 62.7096 9.27842L61.8544 10.1342L62.7048 9.27601C59.75 6.31963 54.5797 6.32204 51.6298 9.27601L7.01573 53.9166V65H18.0931L62.7096 20.3618C64.1858 18.8848 65 16.9171 65 14.8213V14.8189ZM17.0929 62.5827H9.43174V54.9174L44.1981 20.1322L51.8593 27.7975L17.0929 62.5827ZM61.0015 18.6528L53.5674 26.0909L45.9063 18.4256L53.3403 10.9875C55.3794 8.94725 58.9576 8.94242 60.9991 10.9875C62.0186 12.01 62.584 13.3709 62.584 14.8213C62.584 16.2717 62.0211 17.6327 61.0015 18.6528ZM8.93887 19.9968C7.54242 18.3869 6.87077 16.366 7.02056 14.275C7.17035 12.184 8.12226 10.2792 9.6975 8.91099C11.2824 7.54037 13.2949 6.87078 15.392 7.02065C17.4819 7.17052 19.3857 8.12295 20.7508 9.70145L31.5189 22.5616L29.8035 24.2779L18.9098 11.2679C17.9796 10.1898 16.6629 9.53224 15.2181 9.4283C13.7878 9.32677 12.3769 9.78606 11.2848 10.7336C10.1904 11.6837 9.53321 13.0011 9.42932 14.4466C9.32785 15.8946 9.78931 17.2918 10.7364 18.382L22.7657 31.3219L21.0576 33.031L8.93887 19.9968Z" fill="#68ABAA"/>
</svg>
