<svg width="72" height="72" viewBox="0 0 72 72" fill="none" xmlns="http://www.w3.org/2000/svg">
<path d="M49.613 43.2863C51.0171 44.6903 51.0171 46.9693 49.613 48.3733L41.7443 56.242L40.0358 54.5334L47.9044 46.6648C48.3636 46.2056 48.3636 45.4564 47.9044 44.9948L39.8738 36.9643L41.5824 35.2557L49.613 43.2863ZM32.4595 36.9643L30.7509 35.2557L22.7203 43.2863C21.3163 44.6903 21.3163 46.9693 22.7203 48.3733L30.589 56.242L32.2976 54.5334L24.4289 46.6648C23.9698 46.2056 23.9698 45.4564 24.4289 44.9948L32.4595 36.9643ZM60.3333 24.6248V65H12V13.0417C12 9.7115 14.7115 7 18.0417 7H42.7086L60.3333 24.6248ZM43.4167 23.9167H56.2081L43.4167 11.1253V23.9167ZM57.9167 62.5833V26.3333H41V9.41667H18.0417C16.0431 9.41667 14.4167 11.0431 14.4167 13.0417V62.5833H57.9167Z" fill="#68ABAA"/>
</svg>
