<svg width="129" height="142" viewBox="0 0 129 142" fill="none" xmlns="http://www.w3.org/2000/svg">
<path d="M0 0.5H13V20.5H17C18.3333 20.3333 21 19.3 21 16.5C21 10.2516 21 0.5 21 0.5H34C34 0.5 34 15 34 18C34 21 24 23 24 23C24 23 34 24.5 34 27.5C34 30.5 34 53.5 34 53.5H21C21 53.5 21 32.5 21 30.5C21 28.5 18.5 27.5 17 27.5C15.5 27.5 13 27.5 13 27.5V62.5H57V108.5H69V53.5H44V0.5H82V33.5H69V9.5H57V44.5H82V117.5H45V71.5H35V117.5H23V71.5H13V128.5H116V49.5H105V117.5H92V0.5H105V40.5H116V0.5H129V141.5H0V0.5Z" fill="#EB5E3C"/>
</svg>
