<svg width="24" height="24" viewBox="0 0 24 24" fill="none" xmlns="http://www.w3.org/2000/svg">
<path d="M12.0105 3.57105C9.71176 3.57105 7.84829 5.43451 7.84829 7.73321C7.84829 10.0319 9.71176 11.8954 12.0105 11.8954C14.3092 11.8954 16.1726 10.0319 16.1726 7.73321C16.1726 5.43451 14.3092 3.57105 12.0105 3.57105Z" fill="#BFBFBF"/>
<path d="M3.67568 19.1909C5.69273 21.5238 8.67398 23 12 23C15.326 23 18.3073 21.5238 20.3243 19.1909C20.5331 18.9495 20.7315 18.6989 20.9189 18.4398C21.0231 18.2958 21.1238 18.1491 21.2211 18C21.2211 18 18.6781 16.1923 17 15.5C15.1592 14.7406 13.9913 14.5 12 14.5C10.0087 14.5 8.84545 14.752 7 15.5C5.55493 16.0857 3.332 17.3294 2.68347 17.851C2.80979 18.0517 2.94242 18.2481 3.08108 18.4398C3.26849 18.6989 3.46692 18.9495 3.67568 19.1909Z" fill="#BFBFBF"/>
<path d="M20.9189 18.4398C20.7315 18.6989 20.5331 18.9495 20.3243 19.1909C18.3073 21.5238 15.326 23 12 23C8.67398 23 5.69273 21.5238 3.67568 19.1909C3.46692 18.9495 3.26849 18.6989 3.08108 18.4398C2.94242 18.2481 2.80979 18.0517 2.68347 17.851M20.9189 18.4398C22.2283 16.6295 23 14.4049 23 12C23 5.92487 18.0751 1 12 1C5.92487 1 1 5.92487 1 12C1 14.1502 1.61694 16.1563 2.68347 17.851M20.9189 18.4398C21.0231 18.2958 21.1238 18.1491 21.2211 18C21.2211 18 18.6781 16.1923 17 15.5C15.1592 14.7406 13.9913 14.5 12 14.5C10.0087 14.5 8.84545 14.752 7 15.5C5.55493 16.0857 3.332 17.3294 2.68347 17.851M2.5 18C2.5 18 2.56584 17.9456 2.68347 17.851M12.0105 3.57105C9.71176 3.57105 7.84829 5.43451 7.84829 7.73321C7.84829 10.0319 9.71176 11.8954 12.0105 11.8954C14.3092 11.8954 16.1726 10.0319 16.1726 7.73321C16.1726 5.43451 14.3092 3.57105 12.0105 3.57105Z" stroke="#BFBFBF"/>
</svg>
